<?xml version="1.0" encoding="utf-8"?>
<!-- Generator: Adobe Illustrator 18.1.0, SVG Export Plug-In . SVG Version: 6.00 Build 0)  -->
<svg version="1.1" id="Layer_1" xmlns="http://www.w3.org/2000/svg" xmlns:xlink="http://www.w3.org/1999/xlink" x="0px" y="0px"
	 viewBox="0 0 80 80" enable-background="new 0 0 80 80" xml:space="preserve">
<path opacity="0.4" fill="#CC291F" d="M40,0C17.9,0,0,17.9,0,40c0,22.1,17.9,40,40,40s40-17.9,40-40C80,17.9,62.1,0,40,0z M40,76
	C20.1,76,4,59.9,4,40S20.1,4,40,4s36,16.1,36,36S59.9,76,40,76z"/>
<path opacity="0.7" fill="#CC291F" d="M40,8C22.3,8,8,22.3,8,40c0,17.7,14.3,32,32,32s32-14.3,32-32C72,22.3,57.7,8,40,8z M40,68
	c-15.5,0-28-12.5-28-28c0-15.5,12.5-28,28-28s28,12.5,28,28C68,55.5,55.5,68,40,68z"/>
<circle fill="#CC291F" cx="40" cy="40" r="24"/>
</svg>
